<svg xmlns="http://www.w3.org/2000/svg" version="1.1" xmlns:xlink="http://www.w3.org/1999/xlink" xmlns:svgjs="http://svgjs.dev/svgjs" viewBox="0 0 1422 800" opacity="0.98"><defs><linearGradient x1="50%" y1="0%" x2="50%" y2="100%" id="ssscribble-grad"><stop stop-color="hsl(0, 0%, 19%)" stop-opacity="1" offset="0%"></stop><stop stop-color="hsl(0, 0%, 42%)" stop-opacity="1" offset="100%"></stop></linearGradient></defs><g fill="none" stroke-width="1" stroke="url(#ssscribble-grad)" stroke-linecap="round"><path d="M1682.96 348.82C1616.82 379.89 1547.25 413.28 1503.16 448.9 1502.12 484.65 1540.91 522.85 1600.5 563.41 1657.03 604.19 1684.3 647.26 1670.97 692.14 1621.11 736.42 1549.71 781.32 1479 825.45 1428.68 866.48 1410.13 904.09 1422.81 936.14 1480.51 970.37 1537.06 984.82 1486.64 968.71 1425.91 956.41 1357.35 945.74 1291.95 941.53 1237.24 949.73 1199.22 971.37 1178.34 1008.01 1173.97 1058.09 1180.3 1117.35 1191.31 1179.13 1209.53 1256.16 1201.27 1288.18 1169.29 1240.32 1138.56 1200.77 1102.25 1168.16 1062.77 1153.61 1020.24 1165.32 977.33 1202.05 935.54 1257.35 893.02 1319.17 852.76 1371.82 815.37 1401.13 777.93 1400.31 743.54 1368.3 712.47 1313.99 681.41 1255.48 654.4 1209.15 631.33 1187.52 608.21 1196.6 588.84 1230.71 572.78 1278.17 555.98 1326.57 541.34 1359.42 527.51 1367.31 510.63 1348.47 491.76 1304.99 468.65 1246.2 438.96 1183.58 402.12 1128.35 356.91 1088.96 304.96 1070.45 246.6 1071.77 184.91 1088.08 126.02 1114.86 73.45 1141.74 33.38 1161.37 9.8 1170.6 5.17 1163.9 19.17 1141.32 43.84 1105.03 73.63 1057.67 97.68 1003.87 103.15 946.73 85.1 890.97 41.04 839.54 -23.22 793.39 -95.7 754.31 -159.93 721.97 -200.31 696.15 -207.08 675.33 -179.53 657.74 -106.01 637.38 -73.35 596.68 -162.92 571.32 -234.5 553.57 -282.43 532.56 -287.53 508.19 -249.59 483.76 -183.17 456.03 -117.03 424.96 -82.48 393.9 -92.7 360.24 -141.11 324.15 -207.56 288.02 -260.89 249.41 -278.62 208.57 -254.05 167.84 -194.18 125.28 -120.34 81.62 -56.75 39.19 -22.13 -2.82 -23.02 -42.88 -55.6 -79.13 -102.41 -110.81 -144.02 -136 -166.57 -154.67 -158.22 -165.12 -119.77 -166.85 -58.95 -163.3 11.62 -153.78 78.2 -141.09 146.44 -129.38 155.4 -165.62 125.73 -227.57 107.32 -283.88 99.7 -345.35 105.48 -404.48 123.77 -453.14 155.15 -484.57 196.29 -493.77 245.15 -482.09 297.71 -452.19 350.66 -412.34 404.23 -376.32 454.69 -353.06 501.2 -351.75 545.6 -377.16 586.04 -424.84 623.14 -485.23 658.66 -544.67 692.08 -587.93 724.2 -603.17 755.84 -587.69 787.06 -544.51 818.13 -486.01 849.19 -431.7 879.37 -396.53 908.23 -389.55 936.63 -412.71 962.83 -456.22 985.9 -506.04 1007.39 -549.36 1024.5 -571.26 1036.46 -565.45 1046.32 -533.38 1051.04 -480.54 1051.3 -418.22 1052.18 -358.41 1052.12 -311.44 1054.28 -283.59 1064.14 -277.7 1082.28 -289.9 1111.87 -313.43 1153.98 -342.86 1207.83 -367.53 1270.69 -380.93 1335.55 -380.89 1396.73 -363.77 1445.7 -331.24 1475.73 -286.32 1482.94 -233 1467.17 -176.25 1437.27 -119.1 1401.28 -66.02 1372.81 -19.25 1366.71 20.56 1388.46 52.68 1438.71 78.17 1508.03 97.12 1580.16 112.02 1635.51 124.82 1659.17 134.53 1644.78 144.8 1598.72 156.89 1542.41 168.37 1497.38 182.85 1484.79 200.66 1514.51 218.68 1576.99 240.11 1649.58 264.87 1704.14 289.75 1717.51 317.76 1682.96 348.82Q1682.96 348.82 1682.96 348.82" opacity="0.62"></path><path d="M1633.47 441.69C1571.54 471.03 1504.68 502.64 1457.87 536.25 1447.94 569.73 1475.4 604.9 1527.24 641.21 1584.87 676.8 1624.14 712.67 1630.66 747.8 1602.06 780.85 1544.91 811.56 1475.53 838.53 1385.74 883.45 1474.6 880.11 1474.87 868.85 1445.42 868.6 1396.96 875.9 1337.28 893.68 1273.25 923.97 1213.47 965.84 1163.41 1017.53 1125.72 1074.49 1101.59 1131.76 1088.97 1182.62 1095.8 1220.75 1088.87 1114.08 1064.57 1103.74 1043.26 1127.35 1017.9 1171.1 989.88 1227.3 960.23 1284.73 929.48 1330.21 898.65 1352.64 867.43 1347.72 836.92 1315.4 807.58 1263.7 778.24 1208.25 750.76 1162.83 724.84 1138.5 698.51 1141.38 672.95 1167.96 647.27 1209.64 619.96 1256.76 590.96 1294.69 559.04 1313.7 523.86 1310.04 484.25 1282.06 439.55 1235.15 391.62 1177.65 339.51 1118.96 284.84 1068.01 231.87 1031.46 181.71 1012.33 138.49 1009.88 98 1063.48 162.35 1077.3 163.07 1030.3 135.78 986.84 87.87 937.9 24.54 886.82 -43.13 834.85 -102.93 785.26 -141.84 739.49 -152.48 697.27 -133.17 659.86 -90.86 626.81 -42.99 597.56 -4.94 571.43 7.1 547.27 -15.97 525.41 -69.25 503.98 -138.2 482.03 -201.36 461 -237.45 438.47 -233.34 413.94 -192.32 389.6 -128.44 362.85 -66.51 333.51 -33.08 304.17 -39.46 272.94 -81.24 240.13 -142.96 207.51 -198.31 173.73 -226.28 139.43 -217.56 106.04 -172.8 73.12 -106.47 41.75 -38.29 12.67 12.91 -13.29 35.5 -34.89 26.02 -52.68 -6.92 -64.86 -49.17 -70.81 -97.85 -71.81 -43.51 -55.15 46.79 -51.03 112.41 -58.09 169.49 -74.23 211.93 -101.55 236.82 -140.52 245.1 -189.48 241.03 -245.39 227.04 -302.8 211.21 -356.45 198.73 -399.77 190.28 -427.87 191.39 -437.16 202.51 -426.79 221.93 -402 250.04 -367.22 284.48 -331.23 324.12 -305.83 366.55 -296.95 409.64 -309.85 454.31 -345.42 497.56 -397.36 538.47 -455.8 579.4 -508.8 617.57 -544.02 652.76 -552.7 687.84 -534.17 720.12 -491.73 749.46 -436.28 778.8 -384.58 804.51 -349.29 826.58 -338.56 848.53 -355.19 866.68 -392.03 881.08 -438.14 901.05 -497.89 930.15 -483.36 946.2 -409.68 962.61 -350.32 984.07 -295.27 1012.83 -252.35 1049.89 -226.8 1095.55 -219.27 1149.21 -227.03 1206.92 -247.34 1266.42 -271.93 1322.38 -294.26 1384.44 -313.92 1399.79 -271.21 1358.58 -212.49 1329.31 -163.47 1309.21 -111.37 1308.1 -59.39 1332.5 -8.61 1380.63 38.08 1445.63 79.83 1514.05 116.94 1570.92 148.97 1601.9 176.82 1600.82 200.7 1568.71 222.09 1517.08 242.28 1467.31 260.38 1436.56 278.86 1439.16 298.6 1478.45 317.63 1542.44 338.77 1609.96 362.44 1657.54 385.98 1666.9 412.35 1633.47 441.69Q1633.47 441.69 1633.47 441.69" opacity="0.42"></path><path d="M1582.95 503.83C1524.88 531.44 1461.24 559.44 1413.24 587.53 1396.34 615.36 1413.35 642.8 1456.08 669.21 1510.87 694.64 1556.91 718.12 1579.1 738.81 1571.18 757.56 1532.89 772.54 1474.11 783.13 1408.45 791.38 1350.46 795.16 1311.05 794.78 1296.25 793.75 1304.6 790.61 1329.29 787.14 1363.45 787.61 1394.38 791.81 1413.46 802.2 1417.08 821.57 1401.04 849.91 1367.44 887.7 1319.98 933.56 1264.25 985.4 1206.47 1039.59 1150.36 1091.03 1101.11 1135.4 1060.81 1167.64 1029.94 1185 1008.33 1185.38 993.96 1169.32 986.59 1142.6 982.45 1109.22 979.07 1076.79 977.77 1055.21 974.23 1048.92 967.38 1062 960 1095.16 948.59 1143.17 933.25 1198.01 917.1 1249.83 897.51 1287.9 874.92 1303.83 852.05 1295.33 826.7 1263 799.08 1213.97 771.47 1161.61 742.24 1117.41 711.33 1090.95 680.14 1088.22 646.73 1107.39 610.8 1142.43 574.06 1186.23 534.31 1226.34 491.59 1253.51 448.34 1263.06 402.84 1250.7 356.28 1218.43 311.8 1171.55 269.28 1116.67 231.31 1061.75 200.34 1013.56 177.94 977.31 166.24 955.36 191.98 974.94 224.27 1029.24 178.83 1016.3 127.14 995.18 65.47 965.15 2.55 928.45 -50.88 886.42 -85.99 841.51 -95.82 795.84 -81.04 749.47 -45.56 704.85 -0.14 662.79 38.4 622.32 58.71 584.87 51.05 550.22 13.27 517.27 -45.95 486.44 -111.39 457.18 -164.78 428.85 -189.92 401.26 -178.48 373.95 -135.95 346.89 -75.1 319.62 -17.03 292 15.87 264.39 13.77 237.09 -20.87 210.36 -76.79 183.88 -132.34 158.48 -168.63 134.73 -175 111.91 -147.2 91.58 -93.33 74.43 -27.8 58.98 32.93 47.39 75.11 40.01 90.52 34.21 79.75 32.17 50.2 33.19 -7.05 33.97 -34.54 22.49 18.12 -1.43 73.42 -28.86 134.42 -65.04 193.28 -109.53 244.8 -159.83 284.09 -213.4 310.11 -266.01 304.95 -325.4 330.6 -246.59 365.29 -274.54 392.97 -317.29 423.13 -370.59 454.38 -425.05 486.92 -470.74 519.18 -498.03 550.31 -500.77 581.72 -479.77 611.42 -438.37 639.03 -386.01 666.65 -336.98 691.52 -301.85 713.9 -287.89 736.55 -298.35 757.29 -328.3 776.84 -369.46 797.66 -413.65 818.65 -448.47 841.07 -466.05 866.58 -463.55 895.44 -439.27 928.93 -397.45 966.92 -344.78 1010.35 -288.9 1059.02 -237.55 1110.05 -196.86 1163.21 -170.48 1215.43 -159.09 1262.12 -162.57 1300.94 -176.19 1327.85 -195.03 1314.68 -232.88 1248.06 -167.96 1281.88 -107.42 1330.88 -61.39 1392.74 -14.23 1457.08 32.13 1511.26 77.86 1544.53 120.74 1549.37 160.34 1527.42 197.61 1484.67 231.67 1434.72 263.03 1396.43 292.43 1381.82 320.11 1398.85 346.76 1445.79 372.43 1509.47 397.99 1570.84 423.94 1610.96 449.64 1615.86 476.21 1582.95 503.83Q1582.95 503.83 1582.95 503.83" opacity="0.60"></path><path d="M1532.95 488.25C1478.88 514.14 1418.64 538.24 1370.04 560.42 1346.95 582.43 1353.75 602.2 1386.13 619.43 1434.92 636.11 1483.22 649.87 1516.83 660.5 1527.6 670.49 1510.28 677.42 1468.78 681.58 1411.72 686.03 1350.39 688.89 1296.13 691.28 1248.18 700.04 1271.58 742.7 1313 783.93 1337.18 820.64 1349.53 863.64 1347.26 911.47 1330.75 961.02 1300.08 1009.93 1258.81 1054.35 1209.8 1090.58 1157.69 1115.65 1106.3 1126.92 1056.96 1125 1013.02 1109.82 975.29 1084.17 943.4 1055 917.49 1026.09 896.25 1003.84 879.53 995.39 865.22 1002.72 851.77 1027.12 840.39 1066.97 828.04 1116.46 813.81 1167.95 800.15 1213.24 783.81 1243.91 764.43 1253.85 745.12 1242.32 722.59 1210.29 696.7 1164 670.81 1114.77 642.18 1072.04 611.07 1044 580.02 1036.32 546.67 1048.39 511.51 1076.25 476.92 1115.06 441.3 1154.63 405.71 1186.76 372.2 1206.67 340.53 1208.5 312.38 1191.72 288.76 1159.01 270.92 1113.96 260.31 1062.65 255.53 1010.88 258.2 964.29 267.64 926.92 285.92 894.87 306.46 899.96 286.6 921.19 254.94 936.74 210.28 948 155.53 952.99 97.06 952.37 41.2 943.62 -3.94 927.3 -31.85 904.76 -38.4 876.24 -22.82 843.42 8.34 806.95 48.58 768.54 86.66 729.58 109.19 689.54 109.65 650.41 84.27 612.86 36.05 575.47 -24.61 540.04 -83.38 506.68 -125.75 473.68 -140.17 442.57 -122.2 413.29 -78.72 384.15 -21.11 356.6 32.95 330.71 64.82 304.83 66.18 281.2 38.12 259.92 -11.39 238.77 -65.05 220.2 -106.54 204.38 -125.27 188.91 -113.86 176.38 -75.32 166.8 -18.92 157.38 42.84 150.53 96.82 145.71 139.51 137.14 94.14 112.37 45.03 88.65 21.15 65.07 13.73 35.28 24.84 -1.12 53.13 -43.15 96.02 -89.96 147.87 -139.44 204.14 -188.1 258.6 -233.42 307.05 -271.63 347.49 -299.76 377.94 -315.37 398.99 -316.89 410.89 -306.48 416.4 -284.98 418.21 -256.3 415.01 -216.1 416.92 -201.92 427.67 -245.78 437.74 -292.51 451.81 -344.44 469.31 -393.24 487.87 -431.1 509.01 -450.79 532.12 -448.24 555.54 -425.33 580.34 -385.23 606.22 -336 632.11 -289.7 658.49 -255.05 685.49 -238.39 712.8 -243.2 741.35 -266.25 771.61 -301.54 802.94 -343.04 836.83 -380.17 873.72 -405.41 912.13 -415.21 953.74 -405.69 998.17 -378.27 1042.8 -337.04 1088.44 -287.04 1133.2 -234.78 1173.9 -186.04 1209.65 -145.77 1237.65 -116.89 1217.88 -139.54 1219.9 -155.12 1288.85 -124.23 1347.84 -95.13 1407.07 -61.01 1456.67 -23.7 1488.18 16.42 1496.03 57.31 1478.95 97.72 1443.94 138.43 1399.03 177.47 1357.23 214.45 1333.3 250.79 1334.26 284.99 1362.97 317.13 1414.46 348.72 1475.74 378.64 1530.38 407.06 1563.56 435.3 1564.82 462.37 1532.95 488.25Q1532.95 488.25 1532.95 488.25" opacity="0.75"></path><path d="M1483.38 406.62C1433.43 430.78 1376.85 452.3 1328.32 471.22 1300.03 490.15 1297.24 506.5 1318.6 520.39 1358.75 534.43 1404.88 546.27 1444.8 556.29 1470.18 567.07 1472.82 576.84 1451.96 586.38 1411.56 598.07 1358.26 610.99 1301.28 626.26 1248.92 645.48 1208.49 668.58 1183.79 696.36 1176.5 728.9 1183.89 766.25 1201.31 807.89 1225.68 851.93 1249.23 897.5 1267.04 942.27 1277.68 983.27 1276.79 1018.5 1264.25 1045.12 1241.4 1061.81 1209.21 1066.98 1170.48 1060.3 1126.69 1044.85 1081.1 1021.61 1036.04 994.34 991.45 969.66 949.98 950.36 912.2 941.04 877.05 946.04 845.61 965.36 817.28 998.24 791.18 1041.72 767.08 1090.09 744.14 1136.58 722.31 1174.73 700.59 1198.18 678.39 1202.7 656.48 1188.69 633.54 1157.25 609.38 1113.75 585.22 1067.68 560.41 1026.68 535.25 997.64 510.38 985.74 485.73 991.2 461.99 1011.71 439.36 1044.27 418.7 1080.93 400.96 1114.81 379.72 1148.33 363.49 1119.84 368.72 1062.72 374.11 1015.35 381.18 966.78 387.73 921.4 389.22 882.47 385.45 852.4 373.72 831.96 351.69 821.72 319.4 819.75 277.09 823.83 227.61 833.55 173.91 844.67 121 854.8 44.42 863.66 122.49 809.8 161.98 772.02 165.12 743.34 146.75 713.07 107.74 682.18 54.19 650.19 -3.47 618.54 -52.95 587.83 -83.63 556.8 -87.95 527.14 -64.44 499.18 -20.69 471.17 33.43 444.99 83.38 420.82 113.82 396.66 117.89 375.09 95.83 356.04 52.97 336.93 2.87 320.22 -40.97 305.68 -68.91 290.82 -72.07 277.71 -49.75 265.87 -6.88 252.92 48.46 240.27 105.53 227.08 154.54 211.4 187.97 193.74 202.51 173.11 197.46 148.53 177.77 119.86 150.1 86.62 119.27 49.45 94.39 8.35 80.59 -35.72 79.38 -80.42 93.48 -124.72 121.2 -166.1 160.04 -201.86 206.43 -230.05 256.08 -248.33 306.65 -256.42 354.01 -253.25 396.07 -239.48 432.45 -219.27 461.97 -194.11 485.31 -168.29 509.34 -142.57 537.35 -167.2 548.87 -222.23 555.86 -269.75 565.06 -317.94 576.98 -359.83 588.82 -389.66 603.69 -402.23 621.66 -395.11 639.69 -370.85 660.77 -332.3 684.93 -286.23 709.09 -242.73 735.76 -208.85 764.8 -190.05 793.89 -189.79 825.4 -206.13 859.12 -234.96 892.77 -272.12 928.34 -308.95 965.19 -338.8 1001.03 -358.05 1036.89 -361.64 1071.44 -348.93 1102.74 -321.89 1130.39 -282.9 1152.63 -236.67 1168.96 -187.85 1177.96 -141.19 1178.82 -100.58 1146.61 -46.84 1123.13 -66.96 1160.89 -82.62 1203.22 -89.7 1255.01 -91.08 1311 -86.38 1363.83 -76.92 1406.93 -61.5 1433.54 -41.05 1440.55 -16.65 1426.81 11.25 1395.51 41.44 1356.16 73.77 1316.54 106.91 1287.3 139.97 1278.61 173.79 1293.31 206.71 1330.57 238.24 1383.75 269.92 1440.96 299.94 1488.6 328.08 1515.44 356.22 1513.82 382.46 1483.38 406.62Q1483.38 406.62 1483.38 406.62" opacity="0.43"></path><path d="M1433.35 320.13C1387.33 342.57 1334.65 363.27 1287.19 382.36 1255.33 401.58 1244.49 419.45 1255.32 436.29 1285.36 453.69 1325.58 470.63 1366.39 487.65 1400.53 506.03 1418.87 525.37 1417.76 546.34 1397.67 569.61 1360.65 595.41 1312.58 624.23 1259.76 655.77 1209.19 690.49 1166.52 728.18 1135.51 767.39 1117.95 808.13 1113.1 849.05 1120.23 887.98 1134.8 923.99 1152.65 955 1189.38 992.36 1148.57 941.85 1103.75 908.52 1068.45 893.51 1031.32 886.75 993.9 890.91 955.53 907.92 918.48 936.48 883.39 974.54 848.7 1018.61 816.29 1063.58 786.2 1103.82 756.6 1134.58 729.01 1151.19 703.29 1150.94 677.74 1134.98 653.74 1104.43 631.3 1063.77 608.87 1020.9 588.52 981.86 570.37 952.37 552.39 937.02 536.92 936.54 524.2 949.83 511.98 975.36 502.83 1007.17 496.81 1039.88 489.79 1080.76 486.02 1090.39 484.09 1054.59 478.65 1017.91 469.73 975.3 455.56 930.51 434.47 886.49 406.33 846.39 370.74 812.25 329.13 785.38 282.48 766.17 233.41 754.07 186.15 749.19 143.58 749.24 109.96 752.41 84.6 762.26 122.26 776.39 169.48 775.08 206.91 766.79 188.11 728.58 124.83 700.97 71.37 680.42 20.43 658.39 -18.26 635.52 -37.75 612.02 -33.51 588.29 -6.09 564.77 36.92 541.09 87.33 517.92 133.35 495.49 162.49 473.05 169.18 451.87 152.99 431.85 117.18 411.67 71.99 392.34 28.17 373.52 -6.08 354.08 -21.53 334.54 -15.09 314.39 11.63 292.86 54.78 269.88 106.79 244.9 159.72 217.81 205.83 188.07 239.55 155.43 257.43 120.7 259.6 83.35 248.74 43.91 227.17 4.15 201.72 -35.83 177.76 -74.49 157.61 -109.76 146.89 -140.62 147.28 -165.15 158.21 -182.46 180.18 -191.26 211.04 -190.88 249.02 -183.24 291.31 -168.12 335.15 -147.47 379.79 -126.03 422.3 -105.17 461.47 -88.49 497.81 -80.75 529.93 -82.94 558.14 -96.76 583.17 -122.8 605.23 -158.81 625.24 -201.65 643.22 -247.01 660.43 -289.54 677.7 -323.73 694.1 -345.69 711.45 -351.81 730.23 -340.91 748.81 -315.86 769.23 -279.1 791.67 -236.23 814.1 -195.57 838.02 -162.73 863.14 -142.33 888.07 -137.64 913.78 -147.64 939.69 -169.74 964.74 -201.32 989.09 -235.58 1011.82 -266.99 1041.41 -299.37 1077.73 -282.11 1081.13 -234.57 1078.8 -192.81 1072.05 -147.9 1061.99 -103.55 1052.73 -62.58 1043.84 -27.6 1037.96 0 1039.21 19.29 1048.04 30.82 1066.52 35.77 1095.54 34.17 1134.27 28.96 1180.91 22.14 1231.37 13.31 1281.79 5.97 1326.72 1.35 1370.73 -1.23 1355.03 18.65 1304.63 40.33 1269.07 58.23 1240.53 78.74 1226.46 101.08 1232.68 124.76 1258.85 149.38 1301.76 174.29 1354.24 199.77 1406.03 224.96 1446.28 249.44 1466.9 274.06 1462.49 297.69 1433.35 320.13Q1433.35 320.13 1433.35 320.13" opacity="0.50"></path><path d="M1382.96 293.22C1340.75 313.93 1292.12 334.72 1246.53 355.63 1212.56 376.68 1195.3 398.12 1196.58 420.17 1216.02 442.74 1247.75 466.36 1284.87 491.33 1321.85 517.25 1350.11 544.94 1364.75 574.57 1364.22 605.28 1347.03 637.96 1315.69 672.37 1273.92 707.15 1226.5 742.82 1178.65 778.53 1134.35 812.65 1097.6 844.96 1070.38 874.07 1096.23 884.57 1078.71 834.57 1047.92 853.87 1023.44 880.11 997.03 914.44 969.74 954.25 941.16 996.16 912.79 1035.91 885.32 1069.09 857.44 1092.49 830.97 1102.83 806.27 1098.51 781.5 1081.16 758.66 1051.75 737.95 1013.99 717.24 974.34 699.15 937.49 683.58 908.08 661.3 887.25 626.89 921.92 612.89 963.79 602.6 993.89 592.23 1019.47 580.82 1037.36 566.61 1046.64 549.84 1044.72 529.48 1031.81 504.93 1009.36 475.83 978.51 441.89 941.82 404.33 901.56 363.14 860.4 319.73 820.71 276.99 783.96 236.16 751.86 200.09 725.11 232.15 674.37 208.36 659.33 138.82 646.13 90.01 635.74 48.39 623.01 20.96 608.24 11.68 593.02 22.85 576.11 52.73 557.79 94.22 539.33 140.75 519.69 182.96 498.98 210.83 478.27 219.89 456.97 209.27 435.09 180.65 413.08 141.5 390.23 99.99 366.4 62.59 342.12 38.01 316.47 30.55 289.29 40.76 261.37 68.22 231.66 108.58 200.16 156.38 168.05 205.44 134.38 249.91 99.61 285.4 65.23 308.95 30.83 319.94 -2.55 318.23 -33.47 307.05 -61.51 289.92 -85.34 238.99 -115.7 246.62 -80.98 283.42 -53.23 315 -38.11 349.82 -27.33 386.14 -23.34 424.02 -28.9 461.25 -43.85 496.91 -68.31 532.04 -101.38 564.87 -140.45 595.3 -182.23 624.72 -222.99 651.98 -258.48 677.36 -284.65 702.08 -299.15 725.44 -299.62 747.72 -285.72 769.81 -260.41 791.18 -225.66 811.89 -186.01 832.6 -148.24 852.16 -116.73 870.42 -95.28 888.48 -86.86 904.86 -91.1 919.2 -106.5 932.89 -131.69 943.99 -161.55 952.15 -191.77 962.2 -238.91 954.92 -173.22 954.36 -115.02 959.73 -73.57 970.06 -33.4 986.83 3.4 1011.04 35.59 1042.53 62.04 1080.89 82.55 1123.94 96.82 1170.02 105.85 1215.91 110.76 1231.61 111.05 1212.99 154.46 1275.61 178.33 1325.11 195.34 1370.36 213.64 1403.08 232.93 1417.79 252.37 1410.83 272.51 1382.96 293.22Q1382.96 293.22 1382.96 293.22" opacity="0.34"></path><path d="M1332.95 345.7C1294.6 364.69 1250.18 385.06 1207.01 406.74 1172 428.47 1149.67 451.62 1142.47 476.13 1151.32 500.79 1172.91 526.9 1202.78 554.36 1237.29 581.9 1269.32 610.65 1293.97 640.29 1308.99 669.52 1310.72 699.06 1299.05 728.26 1275.5 755.96 1241.91 782.21 1201.79 806.11 1158.18 826.94 1114.92 844.1 1075.04 856.71 1040.38 865.05 1012.83 868.14 992.79 865.74 1002.49 799.86 995.31 878.5 977.54 935.08 963.39 972.53 947.29 1005.76 929.83 1031.53 911.68 1047.91 892.82 1052.67 873.67 1045.03 854.35 1026.81 835.09 998.82 816.11 964 797.12 927.59 778.86 893.14 761.2 864.32 743.37 844.45 725.8 834.58 708.14 834.98 689.8 845.91 670.73 864.53 650.43 888.13 628.74 915.21 605.06 941.24 578.97 963.34 551 980.6 520.27 989.83 486.83 990.22 452.09 982.4 415.46 965.94 377.87 942.12 341.46 912.46 306.48 878.5 274.72 842.23 248.06 804.92 227.61 768.46 214.98 734.16 210.13 702.55 213.98 674.62 226.22 650.59 243.69 630.53 265.82 614.15 289.65 600.88 317.6 586.97 317.95 569.26 280.42 561.81 241.85 557.47 197.46 551.9 152.23 544.75 96.32 533.34 73.06 500.75 112.69 479.36 152.1 464.4 194.6 447.43 232.95 428.45 259.21 409.46 269.93 388.91 264.1 366.9 242.28 344.86 209.76 321.32 172.47 296.39 135.13 271.43 105.28 245.11 87.45 217.65 83.23 190.36 94.51 162.21 119.61 133.65 155.42 105.89 198.11 78.43 242.99 51.99 286.09 27.51 323.47 5.18 352.64 -14.12 320.88 11.01 378.77 -6.67 417.9 -50.18 446.35 -86.2 475.16 -124.59 503.55 -162.39 532.53 -196.7 560.42 -224.39 586.8 -242.65 613.27 -250.38 638.05 -246.1 660.94 -229.99 683.82 -204.93 704.83 -172.41 723.81 -136 742.8 -101.18 759.31 -71.26 773.41 -49.28 793.32 -37.46 821.55 -76.61 830.65 -115.44 847.52 -176.22 888.92 -163.81 917.12 -122.44 942.02 -88.3 971.76 -51.57 1006.2 -14.25 1043.87 22.48 1084.3 56.88 1125.7 87.93 1165.22 115.2 1201.29 138.19 1231.17 157.01 1258.57 177.12 1245.89 198.46 1210.23 203.94 1145.6 212.52 1186 238.77 1250.12 254.44 1294.74 265.73 1332.85 279.03 1358.42 294.27 1368.01 309.57 1359.21 326.72 1332.95 345.7Q1332.95 345.7 1332.95 345.7" opacity="0.51"></path><path d="M1282.96 438.65C1248.45 455.91 1208.33 474.54 1168.15 494.38 1133.29 514.19 1107.55 535.12 1093.48 556.98 1104.92 600.07 1153.45 645.26 1209.75 689.23 1250.52 728.4 1251.4 760.94 1212.51 782.05 1145.37 792.7 1067.65 788.68 997.19 770.78 942.69 750.11 909.23 728.2 892.38 715.53 890.32 724.8 892.11 757.28 890.68 812.37 890.38 880.92 881.33 946.87 863.03 990.95 853.5 1000.91 841.87 1000.91 828.28 990.7 814.59 972.16 799.1 945.82 781.84 913.99 764.58 880.85 745.96 848.98 726.03 821.23 706.01 800.29 684.51 787.14 661.49 782.35 614.69 799.18 560.95 838.32 501.44 882.55 443.04 920.7 384.4 934.9 333.27 921.39 296.92 884.23 280.82 828.29 290.08 764.3 315.3 698.57 352.09 639.11 383.29 589.22 386.24 548.56 354.41 516.54 288.34 489.78 206.74 468.35 138.56 446.95 113.8 422.71 121.21 411.01 141.87 398.11 173.31 383.84 210.07 369.64 248.45 353.94 282.96 336.68 307.47 319.43 319.38 301.01 317.67 281.6 302.21 262.25 276.6 242.02 244.9 221.17 177.37 180.32 138.26 138.93 145.58 100.54 195.63 67.47 272.48 42.64 350.36 30.11 424.87 57.6 390.42 47.18 411.75 -38.83 438.3 -108.37 472.7 -167.16 510.01 -197.31 529.47 -199.19 548.79 -191.12 567.62 -173.6 586.58 -149.27 604.78 -119.15 622.04 -86.01 639.3 -54.18 655.21 -26.09 669.87 -4.12 684.66 9.49 698.45 14.57 711.55 11.28 739.34 -19.46 767.73 -65.76 801 -109.02 842.12 -138.81 893.69 -140.35 956.82 -113.67 1025.03 -65.06 1095.39 -2.23 1155.98 63.67 1194.91 126.81 1203.96 180.39 1179.58 222.94 1137.65 255.03 1091.75 279.34 1067 299.99 1084.98 315.83 1143.74 333.44 1224.58 355.44 1262.94 366.14 1293.64 378.32 1312.5 392.14 1317.63 405.91 1307.47 421.39 1282.96 438.65Q1282.96 438.65 1282.96 438.65" opacity="0.15"></path><path d="M1232.96 502.78C1166.82 533.84 1096.39 565.87 1049.63 597.49 1042.95 627.88 1071.8 655.5 1118.82 677.67 1181.79 700.33 1132.5 692.74 1039.45 669.17 972.06 658.51 913.09 655.07 866.37 665.57 831.42 695.42 806.87 742.53 788.01 802.09 775.12 864.5 761.35 917.33 743.38 947.12 726.39 948.5 702.85 918.3 671.79 863.99 640.72 805.48 603.6 757.97 562 733.2 521.39 737.22 478.64 762.86 437.69 799.15 389.41 852.62 369.2 849.58 403.06 790.3 427.75 736.64 446.19 679.7 445.81 624.85 416.83 572.22 361.6 525.52 289.55 484.8 219.76 447.79 173.22 414.54 167.92 383.35 202.68 353.38 266.82 323.2 332.96 292.13 367.51 261.06 359.27 230.59 316.21 201.97 230.91 162.94 234.47 119.13 328.73 121.65 399.63 128.62 458.41 140.95 498.48 153.9 518.18 157.42 522.37 150.69 518.91 128.32 508.18 87.68 501.28 32.46 502.04 -30.1 504.86 -89.15 516.76 -132.49 536.49 -148.5 557.65 -135.72 584.32 -94.51 615.38 -36.01 646.45 18.29 680.44 54.8 717.87 65.42 756.73 47.62 801.34 12.47 852.36 -27.15 905.44 -63.95 963.49 -83.2 1022.11 -80.71 1073.45 -58.86 1113.86 -18.59 1134.87 32.78 1135.52 90.56 1113.57 148.16 1075.03 201.13 1038.9 249.73 1015.19 291.47 1019.29 327.36 1058.77 359.02 1124.82 387.91 1197.93 416.11 1252.97 443.08 1267.51 471.71 1232.96 502.78Q1232.96 502.78 1232.96 502.78" opacity="0.24"></path><path d="M1182.95 490.27C1124.87 517.88 1060.51 541.77 1010.65 561.36 989.56 580.22 998.44 593.56 1029.11 600.56 1092.32 605.66 1125.11 591.61 1075.94 586.47 1024.67 594.07 968.23 611.65 913.37 641.86 860.56 684.89 814.67 737.4 775.81 793.31 741.34 844.77 711.39 883.13 683.83 899.87 657.71 893.67 631.29 863.02 603.68 814 576.06 761.64 548.56 716.45 522.6 687.53 498.08 680.77 477.8 692.85 464.42 717.61 471.2 788.92 506.86 738.07 469.66 674.49 419.38 627.35 356.24 580.96 291.98 537.6 241.07 494.83 216.47 455.88 226.91 421.02 266.11 386.69 324.87 355.62 382.95 328 415.86 300.39 415.44 277.54 385.33 259.79 309.85 236.93 255.51 222.16 310.38 227.2 369.11 228.44 431.65 228.35 488.66 222.81 536.43 206.34 571.3 179.04 594.95 139.69 608.17 90.16 616.19 34.65 623.48 -19.5 631.48 -78.41 673.17 -58.16 710.99 13.98 738.6 63.01 772.13 99.26 810.58 116.12 848.78 110.05 891.03 87.41 934.88 56.19 975.44 20.52 1012.9 -7.22 1042.24 -21.5 1061.15 -22.96 1065.92 -7.8 1054.35 20.78 1033.53 59.35 1003.73 104.53 973.76 151.7 958.27 200.49 961.77 246.84 990.33 289.15 1042.48 330.01 1107.65 366.91 1169.07 400.13 1209.84 432.61 1215.87 462.65 1182.96 490.26Q1182.95 490.27 1182.95 490.27" opacity="0.54"></path><path d="M1132.95 410.44C1082.86 434.6 1025.71 453.48 976.09 467.28 940.9 485.56 994.37 502.13 1041.61 506.56 1065.21 513.83 1073.55 524.42 1066.28 540.91 1046.35 565.87 1014.79 599.02 976.51 640.08 933.05 686.62 888.99 735.61 847.4 781.57 805.79 819.36 768.25 843.48 735.35 849.12 702.93 837.41 674.5 807.5 650.34 764 626.17 717.93 607.42 676.12 594.28 645.23 578.41 630.24 576.78 678.09 585.14 714.08 586.17 734.57 583.05 745.51 571.3 745.96 546.91 738.58 509.92 721.58 461.16 697.49 405.87 668.29 349.99 635.57 303.29 601.96 273.94 566.71 268.72 532.72 290.31 501.44 330.61 469.94 382.86 441.71 432.95 417.55 463.63 393.38 469.37 374.43 451.28 360.36 413.2 346.08 369.5 336.12 332.12 329.5 306.22 321.23 301.16 314.15 316.71 306.12 349.07 292.97 394.19 275.28 444.82 250.99 497.65 218.87 546.72 179.29 589.33 133.64 626.44 85.37 656.78 37.93 682.05 -2.82 703.36 -32.49 722.88 -46.16 742.65 -40.54 761.37 -18.99 782.43 17.92 806.59 63.98 830.75 107.49 856.88 142.29 883.72 163.34 909.51 167.03 933.95 156.67 954.52 136.59 942.29 70.62 920.13 167.89 977.11 222.27 1032.2 259.43 1089.66 294.46 1137.06 326.21 1164.47 357.98 1163.63 386.28 1132.95 410.44Q1132.95 410.44 1132.95 410.44" opacity="0.29"></path><path d="M1082.96 322.81C1040.75 343.52 991.64 360.97 945.26 375.52 898.86 397 902.3 436.59 935.71 460.78 962.17 481.6 983.25 506.58 996 536.43 1002.46 570.71 998.83 609.3 986.66 650.52 968.6 691.59 945.08 730.32 918.84 762.75 890.12 786.38 861.39 797.89 834.49 794.92 807.12 779.8 782.61 751.75 761.9 713.99 741.19 674.34 725.26 636.83 713.57 606.07 696.94 581.05 670.35 594.3 651.2 619.28 631.44 638.9 605.34 654.92 571.74 665.45 531.84 672.86 486.2 673.26 438.18 667.19 393.03 657.44 354.8 642.61 329.63 624.29 320.22 603.99 329.65 581.99 357.45 559.67 395.84 536.85 440.75 514.7 482.96 493.99 510.83 473.28 520.97 454.99 513.24 438.75 488.44 422.01 455.15 406.33 420.97 390.74 388.84 373.17 367.72 353.89 360.29 331.72 365.02 305.87 383.24 275.74 411.5 241.19 447.31 203.52 487.21 162.93 527.55 121.75 568.76 82.94 607.19 48.89 641.72 23.44 674.95 8.19 704.5 6.06 730.62 18.26 756.14 41.02 779.24 74.34 799.95 113.99 820.66 151.75 838 184 851.54 207.11 860.51 163.36 837.81 111.84 857.82 125.31 886.81 140.36 926.5 159.83 973.82 181.9 1023.18 205.83 1068.26 230.53 1101.05 254.6 1116.77 279.11 1110.83 302.1 1082.96 322.81Q1082.96 322.81 1082.96 322.81" opacity="0.87"></path><path d="M1032.95 292.74C958.71 327.26 881.49 362.57 835.17 400.96 832.19 444.25 856.76 497.79 884.75 561.15 913.46 627.03 920.18 690.5 906.29 733.62 885.03 747.96 853.5 723.31 818.98 663.97 784.46 599.49 750.22 548.06 711.66 522.41 665.74 526.83 605.15 545.84 531.2 564.4 427.37 587.28 427.09 548.45 532.95 500.36 568.54 465.84 555.64 427.21 512.22 383.24 455.9 335.17 424.44 276.63 427.27 210.84 455.44 147.05 504.71 91.42 557.58 61.71 614.66 62.05 663.64 99.49 698.16 163.97 741.07 242.63 761.46 241.66 780.82 207.6 823.24 189.47 891.31 189.81 972.93 206.34 1041.65 227.76 1068.54 258.22 1032.95 292.74Q1032.95 292.74 1032.95 292.74" opacity="0.82"></path><path d="M982.94 342.65C924.86 370.27 859.09 405.99 806.6 448.09 777.56 491.16 770.25 540.86 775.2 591.89 797.8 656.14 795.34 676.65 760.58 613.98 732.97 561.63 694.65 514.49 647.72 481.44 600.08 466.89 545.31 464.81 492.36 468.1 440.23 481.7 497.57 467.45 582.94 431.91 615.85 404.29 618.73 367.53 597.92 324.23 558.27 280.86 522.81 232.34 503.18 185.26 493.7 145.78 503.3 118.57 525.17 112.88 552.24 125.68 582.47 161.63 610.08 213.98 637.7 263.01 660.08 301.48 680.86 323.57 706.85 326.26 740.34 318.65 786.02 309.04 841.84 294.21 906.58 287.61 966.48 292.39 1007.54 298.14 1015.86 315.03 982.95 342.64Q982.94 342.65 982.94 342.65" opacity="0.54"></path><path d="M932.96 435.28C890.75 456 840.67 483.27 793.68 514.22 755.03 544.15 727.12 575.39 709.06 603.15 697.5 631.76 675.79 614.42 649.12 563.99 628.41 524.33 600.87 485.51 570.32 452.76 528.67 420.23 490.82 391.86 517.25 380.63 549.07 373.53 590.75 360.33 632.96 339.62 660.83 318.91 673.12 292.65 671.05 263.86 654.22 236.5 633.56 209.58 616.41 187.93 594.08 169.97 602.8 209.12 629.96 263.99 650.67 301.75 677.24 335.48 709.08 361.33 742.57 377.04 783.24 385.95 828.54 391.01 872.84 390.4 915.46 391.48 947.47 397.45 964.72 402.39 960.83 414.57 932.96 435.28Q932.96 435.28 932.96 435.28" opacity="0.40"></path><path d="M882.95 501.63C824.88 529.24 756.3 559.47 703.63 576.99 662.89 583.51 631.46 563.02 603.85 514 576.24 461.64 557.66 410.61 562.21 372.9 578.69 345.32 624.88 319.99 682.95 292.38 720.58 252.43 708.67 247.32 736.52 314 764.13 363.02 813.66 405.9 864.62 435.58 902.91 454.25 915.86 474.02 882.95 501.63Q882.95 501.63 882.95 501.63" opacity="0.62"></path></g></svg>