<svg xmlns="http://www.w3.org/2000/svg" version="1.1" xmlns:xlink="http://www.w3.org/1999/xlink" xmlns:svgjs="http://svgjs.dev/svgjs" width="1800" height="4000" preserveAspectRatio="none" viewBox="0 0 1800 4000"><g mask="url(&quot;#SvgjsMask1260&quot;)" fill="none"><rect width="1800" height="4000" x="0" y="0" fill="url(&quot;#SvgjsLinearGradient1261&quot;)"></rect><path d="M1800 0L1006.17 0L1800 1575.76z" fill="rgba(255, 255, 255, .1)"></path><path d="M1006.17 0L1800 1575.76L1800 2569.59L777.9599999999999 0z" fill="rgba(255, 255, 255, .075)"></path><path d="M777.9599999999999 0L1800 2569.59L1800 3247.36L661.43 0z" fill="rgba(255, 255, 255, .05)"></path><path d="M661.4299999999998 0L1800 3247.36L1800 3751.77L424.3799999999998 0z" fill="rgba(255, 255, 255, .025)"></path><path d="M0 4000L393.03 4000L0 2391.13z" fill="rgba(0, 0, 0, .1)"></path><path d="M0 2391.13L393.03 4000L606.86 4000L0 1945.25z" fill="rgba(0, 0, 0, .075)"></path><path d="M0 1945.25L606.86 4000L818.23 4000L0 1776.26z" fill="rgba(0, 0, 0, .05)"></path><path d="M0 1776.2600000000002L818.23 4000L1238.87 4000L0 1433.1700000000003z" fill="rgba(0, 0, 0, .025)"></path></g><defs><mask id="SvgjsMask1260"><rect width="1800" height="4000" fill="#ffffff"></rect></mask><linearGradient x1="-30.56%" y1="13.75%" x2="130.56%" y2="86.25%" gradientUnits="userSpaceOnUse" id="SvgjsLinearGradient1261"><stop stop-color="rgba(0, 0, 0, 1)" offset="0"></stop><stop stop-color="rgba(22, 22, 22, 1)" offset="0.44"></stop><stop stop-color="rgba(52, 51, 50, 1)" offset="0.74"></stop><stop stop-color="rgba(57, 57, 56, 1)" offset="1"></stop></linearGradient></defs></svg>